<?xml version="1.0" encoding="UTF-8" standalone="no"?>
<!-- Generator: Adobe Illustrator 27.5.0, SVG Export Plug-In . SVG Version: 6.00 Build 0)  -->

<svg
   version="1.1"
   x="0px"
   y="0px"
   viewBox="0 0 500 500"
   style="enable-background:new 0 0 500 500;"
   xml:space="preserve"
   id="svg145"
   sodipodi:docname="construcao.svg"
   inkscape:version="1.4 (e7c3feb100, 2024-10-09)"
   xmlns:inkscape="http://www.inkscape.org/namespaces/inkscape"
   xmlns:sodipodi="http://sodipodi.sourceforge.net/DTD/sodipodi-0.dtd"
   xmlns:xlink="http://www.w3.org/1999/xlink"
   xmlns="http://www.w3.org/2000/svg"
   xmlns:svg="http://www.w3.org/2000/svg"><defs
   id="defs145">
	
	
	
	
	
	
</defs><sodipodi:namedview
   id="namedview145"
   pagecolor="#ffffff"
   bordercolor="#000000"
   borderopacity="0.25"
   inkscape:showpageshadow="2"
   inkscape:pageopacity="0.0"
   inkscape:pagecheckerboard="0"
   inkscape:deskcolor="#d1d1d1"
   inkscape:zoom="1.6"
   inkscape:cx="250"
   inkscape:cy="250"
   inkscape:window-width="1920"
   inkscape:window-height="1008"
   inkscape:window-x="0"
   inkscape:window-y="0"
   inkscape:window-maximized="1"
   inkscape:current-layer="svg145" />
<g
   id="BACKGROUND">
	<g
   id="g3">
		<g
   id="g2">
			<defs
   id="defs1">
				<rect
   id="SVGID_1_"
   y="-0.001"
   width="500"
   height="500" />
			</defs>
			<use
   xlink:href="#SVGID_1_"
   style="overflow:visible;fill:#A6D181;"
   id="use1" />
			<clipPath
   id="SVGID_00000013899183449689992930000001906964425589303735_">
				<use
   xlink:href="#SVGID_1_"
   style="overflow:visible;"
   id="use2" />
			</clipPath>
		</g>
	</g>
	<rect
   y="-0.001"
   style="fill:#FFFFFF;"
   width="500"
   height="500"
   id="rect3" />
</g>
<g
   id="g7"
   inkscape:export-filename="g7.png"
   inkscape:export-xdpi="96"
   inkscape:export-ydpi="96">
		<ellipse
   style="fill:#515860"
   cx="250"
   cy="379.14301"
   rx="224.24899"
   ry="10.998"
   id="ellipse6" />
		<path
   style="fill:#515860"
   d="m 377.854,203.868 c 0,-48.629 -39.422,-88.051 -88.051,-88.051 -28.991,0 -54.707,14.013 -70.752,35.634 h -82.437 v 57.674 c -48.629,0 -88.051,39.422 -88.051,88.051 0,48.629 39.422,88.051 88.051,88.051 11.158,0 21.828,-2.081 31.651,-5.866 h 209.589 z"
   id="path6" />
		<path
   style="fill:#515860"
   d="m 428.29,265.829 c -1.634,0.971 -2.996,2.356 -3.943,4.002 -0.924,1.61 -1.444,3.469 -1.444,5.447 v 34.727 c 0,5.494 4.026,10.04 9.283,10.857 0.545,0.083 1.113,0.13 1.693,0.13 6.062,0 10.976,-4.914 10.976,-10.988 v -34.727 c 0,-1.859 -0.462,-3.611 -1.279,-5.151 -1.698,-3.189 -4.924,-5.414 -8.698,-5.756 v -47.793 c 2.779,-0.476 4.896,-2.89 4.896,-5.805 0,-2.915 -2.117,-5.329 -4.896,-5.805 v -39.302 c 2.779,-0.476 4.896,-2.89 4.896,-5.805 0,-2.915 -2.117,-5.329 -4.896,-5.805 V 80.296 c 1.838,-0.315 3.384,-1.475 4.221,-3.072 1.393,-0.26 2.448,-1.477 2.448,-2.944 0,-1.558 -1.191,-2.823 -2.711,-2.971 -1.049,-1.631 -2.875,-2.714 -4.958,-2.714 -1.568,0 -2.989,0.616 -4.045,1.614 L 391.7,41.627 c 0.434,-0.821 0.682,-1.756 0.682,-2.749 0,-3.256 -2.64,-5.896 -5.896,-5.896 -3.256,0 -5.896,2.64 -5.896,5.896 0,0.624 0.098,1.224 0.278,1.789 L 361.592,50.911 H 218.009 c -0.663,0 -1.299,0.263 -1.768,0.732 L 196.606,71.28 h -13.893 c -1.657,0 -3,1.343 -3,3 0,1.657 1.343,3 3,3 h 12.962 v 10.509 h -11.493 v 5.944 l 11.497,17.973 h 1.895 1.612 c -0.034,0.903 -0.061,1.807 -0.085,2.71 -1.395,0.28 -2.74,0.839 -3.875,1.702 -1.683,1.261 -2.921,3.091 -3.483,5.121 -0.562,2.031 -0.416,4.221 0.374,6.157 0.778,1.941 2.222,3.58 4.011,4.6 1.774,1.048 3.897,1.46 5.894,1.195 2.002,-0.289 3.899,-1.227 5.217,-2.686 2.775,-2.835 2.921,-7.516 0.655,-10.098 0.839,3.285 -0.384,6.435 -2.582,8.017 -1.077,0.817 -2.361,1.247 -3.628,1.31 -1.277,0.024 -2.543,-0.271 -3.564,-0.985 -2.095,-1.368 -3.046,-4.07 -2.329,-6.371 0.629,-2.316 2.895,-4.036 5.31,-4.078 l 2.098,-0.036 -0.047,-2.015 c -0.035,-1.515 -0.082,-3.03 -0.14,-4.544 h 3.502 L 218.011,93.732 V 87.788 H 206.518 V 77.28 H 374.767 V 345.762 H 343.55 v 31.519 h 25.137 76.168 V 357.97 345.763 H 413.717 V 77.28 h 14.967 c 0.844,1.568 2.378,2.705 4.195,3.016 v 73.762 c -2.779,0.476 -4.896,2.89 -4.896,5.805 0,2.915 2.117,5.329 4.896,5.805 v 39.301 c -2.779,0.476 -4.896,2.89 -4.896,5.805 0,2.915 2.117,5.329 4.896,5.805 v 47.791 c -1.662,0.151 -3.227,0.65 -4.589,1.459 z M 381.795,42.44 c 1.077,1.416 2.775,2.335 4.691,2.335 1.541,0 2.939,-0.596 3.99,-1.564 l 37.45,28.069 H 411.2 L 391.564,51.645 c -0.469,-0.469 -1.105,-0.732 -1.768,-0.732 H 365.853 Z M 366.614,71.28 351.246,55.912 h 33.929 L 369.807,71.28 Z m -42.946,0 L 308.3,55.913 h 33.928 L 326.861,71.28 Z m -42.948,0 -15.368,-15.368 h 33.929 L 283.914,71.28 Z m -42.947,0 -15.368,-15.368 h 33.929 L 240.967,71.28 Z m 22.804,-15.367 h 0.534 l 15.368,15.368 H 245.21 Z m 42.947,0 h 0.534 l 15.368,15.368 h -31.269 z m 42.947,0 h 0.534 l 15.368,15.368 h -31.269 z m 42.619,0.328 15.04,15.04 h -30.08 z m 19.627,55.279 -14.518,14.518 -14.434,-14.434 v -0.926 l 14.434,-14.434 14.518,14.518 z m 0,174.421 v 24.793 L 396.32,298.337 Z m -14.518,10.276 -13.397,-13.397 h 26.794 z m -13.397,-16.397 13.397,-13.397 13.397,13.397 z m -1.038,-3.205 v -24.626 l 12.313,12.313 z m 0,-28.868 v -0.926 l 14.434,-14.434 14.518,14.518 v 0.758 l -14.518,14.518 z m 16.556,-17.481 12.397,-12.397 v 24.794 z m -2.121,-2.121 -13.397,-13.397 h 26.794 z m -13.397,-16.397 13.397,-13.397 13.397,13.397 z m -1.038,-3.205 v -24.626 l 12.313,12.313 z m 0,-28.868 v -0.926 l 14.434,-14.434 14.518,14.518 v 0.758 l -14.518,14.518 z m 16.556,-17.481 12.397,-12.397 v 24.794 z m -2.121,-2.121 -13.397,-13.397 h 26.794 z m -13.397,-16.397 13.397,-13.397 13.397,13.397 z m -1.038,-3.205 v -24.626 l 12.313,12.313 z m 0,-34.035 V 81.81 l 12.313,12.313 z m 0,43.445 12.313,12.313 -12.313,12.313 z m 0,68.072 12.313,12.313 -12.313,12.313 z m 0,68.072 12.313,12.313 -12.313,12.313 z m 0,28.868 14.434,-14.434 14.518,14.518 v 0.758 l -14.518,14.518 -14.434,-14.434 z m 28.953,-38.194 -12.397,-12.397 12.397,-12.397 z m 0,-68.072 -12.397,-12.397 12.397,-12.397 z m 0,-68.072 -12.397,-12.397 12.397,-12.397 z M 396.32,94.123 408.717,81.726 V 106.52 Z M 394.199,92.001 379.765,77.567 V 77.28 h 28.952 v 0.203 z m -2.122,240.373 -12.313,12.313 v -24.626 z m -9.146,13.388 11.268,-11.268 11.268,11.268 z m 13.389,-13.388 12.397,-12.397 v 24.794 z M 218.604,56.353 233.531,71.28 h -29.855 z m -14.088,31.436 h -6.841 V 77.28 h 6.841 z"
   id="path7" />
	</g><g
   id="g33">
		<g
   id="g9">
			<rect
   x="212.326"
   y="322.63"
   style="fill:#cccdce"
   width="76.475998"
   height="55.743"
   id="rect7" />
			<path
   style="fill:#bbbbbc"
   d="m 288.803,322.63 v 55.743 h -26.12 v -21.094 c 0,-4.952 -1.67,-9.503 -4.486,-13.129 -3.921,-5.067 -10.06,-8.324 -16.968,-8.324 H 212.326 V 322.63 Z"
   id="path8" />
			<path
   style="fill:#cccdce"
   d="m 318.979,369.541 v 5.713 c 0,1.727 -1.855,3.119 -4.157,3.119 H 185.685 c -2.292,0 -4.157,-1.392 -4.157,-3.119 v -5.713 c 0,-1.719 1.866,-3.119 4.157,-3.119 h 129.136 c 1.015,0 1.953,0.278 2.673,0.728 0.906,0.574 1.485,1.433 1.485,2.391 z"
   id="path9" />
		</g>
		<path
   style="fill:#cccdce"
   d="M 382.594,326.997 H 118.54 c -5.014,0 -9.078,-4.065 -9.078,-9.078 V 155.91 c 0,-5.014 4.065,-9.079 9.078,-9.079 h 264.054 c 2.507,0 4.777,1.016 6.42,2.659 1.643,1.643 2.659,3.912 2.659,6.419 v 162.009 c -10e-4,5.014 -4.065,9.079 -9.079,9.079 z"
   id="path10" />
		<rect
   x="120.492"
   y="157.104"
   style="fill:#ffffff"
   width="260.14899"
   height="159.618"
   id="rect10" />
		<g
   id="g12">
			<path
   style="fill:#cccdce"
   d="m 374.182,313.383 v 0 c -1.443,0 -2.612,-1.17 -2.612,-2.612 v -123.86 c 0,-1.443 1.17,-2.612 2.612,-2.612 v 0 c 0.657,0 1.257,0.242 1.715,0.642 0.55,0.479 0.897,1.184 0.897,1.97 v 123.86 c 0,1.443 -1.169,2.612 -2.612,2.612 z"
   id="path11" />
			<path
   style="fill:#b5b8ba"
   d="m 374.182,241.29 v 0 c -0.83,0 -1.503,-0.673 -1.503,-1.503 v -6.642 c 0,-0.83 0.673,-1.503 1.503,-1.503 v 0 c 0.415,0 0.791,0.168 1.063,0.44 0.272,0.272 0.44,0.648 0.44,1.063 v 6.642 c 0,0.83 -0.673,1.503 -1.503,1.503 z"
   id="path12" />
		</g>
		<g
   id="g25">
			<rect
   x="298.42499"
   y="191.11099"
   style="fill:#cccdce"
   width="65.330002"
   height="114.813"
   id="rect12" />
			<rect
   x="303.698"
   y="196.09599"
   style="fill:#b5b8ba"
   width="54.784"
   height="9.8190002"
   id="rect13" />
			<rect
   x="303.698"
   y="210.267"
   style="fill:#b5b8ba"
   width="54.784"
   height="3.8889999"
   id="rect14" />
			<rect
   x="303.698"
   y="217.703"
   style="fill:#b5b8ba"
   width="54.784"
   height="3.8900001"
   id="rect15" />
			<rect
   x="303.698"
   y="225.14"
   style="fill:#b5b8ba"
   width="54.784"
   height="3.8889999"
   id="rect16" />
			<rect
   x="303.698"
   y="232.577"
   style="fill:#b5b8ba"
   width="54.784"
   height="3.8889999"
   id="rect17" />
			<rect
   x="303.698"
   y="240.01401"
   style="fill:#b5b8ba"
   width="54.784"
   height="3.8889999"
   id="rect18" />
			<rect
   x="303.698"
   y="247.45"
   style="fill:#b5b8ba"
   width="54.784"
   height="3.8900001"
   id="rect19" />
			<rect
   x="303.698"
   y="254.88699"
   style="fill:#b5b8ba"
   width="54.784"
   height="3.8889999"
   id="rect20" />
			<rect
   x="303.698"
   y="262.32401"
   style="fill:#b5b8ba"
   width="54.784"
   height="3.8889999"
   id="rect21" />
			<rect
   x="303.698"
   y="269.76099"
   style="fill:#b5b8ba"
   width="54.784"
   height="3.8889999"
   id="rect22" />
			<rect
   x="303.698"
   y="277.19699"
   style="fill:#b5b8ba"
   width="54.784"
   height="3.8889999"
   id="rect23" />
			<rect
   x="303.698"
   y="284.634"
   style="fill:#b5b8ba"
   width="54.784"
   height="3.8889999"
   id="rect24" />
			<rect
   x="303.698"
   y="292.07101"
   style="fill:#b5b8ba"
   width="54.784"
   height="3.8889999"
   id="rect25" />
		</g>
		<rect
   x="128.806"
   y="191.11099"
   style="fill:#cccdce"
   width="152.924"
   height="33.103001"
   id="rect26" />
		<rect
   x="128.806"
   y="234.522"
   style="fill:#cccdce"
   width="72.919998"
   height="72.919998"
   id="rect27" />
		<rect
   x="120.49"
   y="157.106"
   style="fill:#4a6eaa"
   width="260.15399"
   height="23.854"
   id="rect28" />
		<path
   style="fill:#ffffff"
   d="m 357.5,175.287 h -55.703 c -3.454,0 -6.255,-2.8 -6.255,-6.255 v 0 c 0,-2.098 1.033,-3.955 2.619,-5.09 1.025,-0.733 2.28,-1.165 3.636,-1.165 H 357.5 c 3.454,0 6.255,2.8 6.255,6.255 v 0 c 0,1.855 -0.808,3.522 -2.091,4.668 -1.106,0.988 -2.565,1.587 -4.164,1.587 z"
   id="path28" />
		<g
   id="g31">
			<g
   id="g29">
				<path
   style="fill:#4a6eaa"
   d="m 301.832,172.226 c -0.873,0 -1.746,-0.332 -2.41,-0.997 -1.329,-1.329 -1.329,-3.491 0,-4.82 1.329,-1.329 3.492,-1.329 4.821,0 1.329,1.329 1.329,3.491 0,4.82 -0.665,0.665 -1.538,0.997 -2.411,0.997 z m 0,-5.501 c -0.537,0 -1.073,0.204 -1.482,0.613 -0.817,0.817 -0.817,2.146 0,2.963 0.817,0.817 2.147,0.817 2.964,0 0.817,-0.817 0.817,-2.146 0,-2.963 -0.408,-0.409 -0.945,-0.613 -1.482,-0.613 z"
   id="path29" />
			</g>
			<g
   id="g30">
				<path
   style="fill:#4a6eaa"
   d="m 306.417,174.06 c -0.168,0 -0.336,-0.064 -0.464,-0.192 l -2.562,-2.562 c -0.257,-0.257 -0.257,-0.672 0,-0.928 0.257,-0.256 0.672,-0.257 0.928,0 l 2.562,2.562 c 0.257,0.256 0.257,0.672 0,0.928 -0.128,0.128 -0.296,0.192 -0.464,0.192 z"
   id="path30" />
			</g>
		</g>
		<path
   style="fill:#ffffff"
   d="m 142.869,169.033 c 0,3.454 -2.8,6.255 -6.255,6.255 -3.454,0 -6.255,-2.8 -6.255,-6.255 0,-3.454 2.8,-6.255 6.255,-6.255 3.455,0 6.255,2.8 6.255,6.255 z"
   id="path31" />
		<path
   style="fill:#ffffff"
   d="m 164.092,169.033 c 0,3.454 -2.8,6.255 -6.255,6.255 -3.454,0 -6.255,-2.8 -6.255,-6.255 0,-3.454 2.8,-6.255 6.255,-6.255 3.455,0 6.255,2.8 6.255,6.255 z"
   id="path32" />
		<path
   style="fill:#ffffff"
   d="m 185.315,169.033 c 0,3.454 -2.8,6.255 -6.255,6.255 -3.454,0 -6.255,-2.8 -6.255,-6.255 0,-3.454 2.8,-6.255 6.255,-6.255 3.455,0 6.255,2.8 6.255,6.255 z"
   id="path33" />
	</g><g
   id="g64">
		<g
   id="g54">
			<g
   id="g43">
				<g
   id="g42">
					<path
   style="fill:#b7820b"
   d="m 414.282,377.638 h -17.904 c -0.457,0 -0.89,-0.209 -1.175,-0.566 -0.284,-0.358 -0.39,-0.827 -0.286,-1.272 l 21.386,-92.16 c 0.157,-0.68 0.763,-1.161 1.461,-1.161 h 17.904 c 0.457,0 0.89,0.209 1.175,0.566 0.284,0.358 0.39,0.827 0.286,1.272 l -21.386,92.16 c -0.157,0.68 -0.763,1.161 -1.461,1.161 z m -16.017,-3 h 14.825 l 20.689,-89.16 h -14.825 z"
   id="path34" />
					<path
   style="fill:#b7820b"
   d="m 433.142,296.361 h -17.904 c -0.828,0 -1.5,-0.672 -1.5,-1.5 0,-0.828 0.672,-1.5 1.5,-1.5 h 17.904 c 0.828,0 1.5,0.672 1.5,1.5 0,0.828 -0.672,1.5 -1.5,1.5 z"
   id="path35" />
					<path
   style="fill:#b7820b"
   d="m 430.802,306.445 h -17.904 c -0.828,0 -1.5,-0.672 -1.5,-1.5 0,-0.828 0.672,-1.5 1.5,-1.5 h 17.904 c 0.828,0 1.5,0.672 1.5,1.5 0,0.828 -0.671,1.5 -1.5,1.5 z"
   id="path36" />
					<path
   style="fill:#b7820b"
   d="m 428.463,316.528 h -17.904 c -0.828,0 -1.5,-0.672 -1.5,-1.5 0,-0.828 0.672,-1.5 1.5,-1.5 h 17.904 c 0.828,0 1.5,0.672 1.5,1.5 0,0.828 -0.672,1.5 -1.5,1.5 z"
   id="path37" />
					<path
   style="fill:#b7820b"
   d="m 426.123,326.612 h -17.904 c -0.828,0 -1.5,-0.672 -1.5,-1.5 0,-0.828 0.672,-1.5 1.5,-1.5 h 17.904 c 0.828,0 1.5,0.672 1.5,1.5 0,0.828 -0.672,1.5 -1.5,1.5 z"
   id="path38" />
					<path
   style="fill:#b7820b"
   d="m 423.783,336.696 h -17.904 c -0.828,0 -1.5,-0.672 -1.5,-1.5 0,-0.828 0.672,-1.5 1.5,-1.5 h 17.904 c 0.828,0 1.5,0.672 1.5,1.5 0,0.828 -0.672,1.5 -1.5,1.5 z"
   id="path39" />
					<path
   style="fill:#b7820b"
   d="m 421.443,346.78 h -17.904 c -0.828,0 -1.5,-0.672 -1.5,-1.5 0,-0.828 0.672,-1.5 1.5,-1.5 h 17.904 c 0.828,0 1.5,0.672 1.5,1.5 0,0.828 -0.672,1.5 -1.5,1.5 z"
   id="path40" />
					<path
   style="fill:#b7820b"
   d="m 419.102,356.863 h -17.903 c -0.828,0 -1.5,-0.672 -1.5,-1.5 0,-0.828 0.672,-1.5 1.5,-1.5 h 17.903 c 0.828,0 1.5,0.672 1.5,1.5 0,0.828 -0.672,1.5 -1.5,1.5 z"
   id="path41" />
					<path
   style="fill:#b7820b"
   d="m 416.762,366.947 h -17.903 c -0.828,0 -1.5,-0.672 -1.5,-1.5 0,-0.828 0.672,-1.5 1.5,-1.5 h 17.903 c 0.828,0 1.5,0.672 1.5,1.5 0,0.828 -0.671,1.5 -1.5,1.5 z"
   id="path42" />
				</g>
				<path
   style="fill:#b7820b"
   d="m 419.135,377.638 h -27.608 c -0.828,0 -1.5,-0.672 -1.5,-1.5 0,-0.828 0.672,-1.5 1.5,-1.5 h 27.608 c 0.828,0 1.5,0.672 1.5,1.5 0,0.828 -0.672,1.5 -1.5,1.5 z"
   id="path43" />
			</g>
			<g
   id="g53">
				<g
   id="g52">
					<path
   style="fill:#edb732"
   d="m 458.264,377.638 h -17.903 c -0.698,0 -1.304,-0.481 -1.461,-1.161 l -21.386,-92.16 c -0.104,-0.445 0.002,-0.914 0.286,-1.272 0.285,-0.358 0.718,-0.566 1.175,-0.566 h 17.903 c 0.698,0 1.304,0.481 1.461,1.161 l 21.386,92.16 c 0.103,0.445 -0.002,0.914 -0.286,1.272 -0.285,0.357 -0.718,0.566 -1.175,0.566 z m -16.712,-3 h 14.824 l -20.689,-89.16 h -14.824 z"
   id="path44" />
					<path
   style="fill:#edb732"
   d="m 439.404,296.361 h -17.903 c -0.828,0 -1.5,-0.672 -1.5,-1.5 0,-0.828 0.672,-1.5 1.5,-1.5 h 17.903 c 0.828,0 1.5,0.672 1.5,1.5 0,0.828 -0.672,1.5 -1.5,1.5 z"
   id="path45" />
					<path
   style="fill:#edb732"
   d="m 441.744,306.445 h -17.903 c -0.828,0 -1.5,-0.672 -1.5,-1.5 0,-0.828 0.672,-1.5 1.5,-1.5 h 17.903 c 0.828,0 1.5,0.672 1.5,1.5 0,0.828 -0.672,1.5 -1.5,1.5 z"
   id="path46" />
					<path
   style="fill:#edb732"
   d="M 444.084,316.528 H 426.18 c -0.828,0 -1.5,-0.672 -1.5,-1.5 0,-0.828 0.672,-1.5 1.5,-1.5 h 17.903 c 0.828,0 1.5,0.672 1.5,1.5 10e-4,0.828 -0.671,1.5 -1.499,1.5 z"
   id="path47" />
					<path
   style="fill:#edb732"
   d="M 446.425,326.612 H 428.52 c -0.828,0 -1.5,-0.672 -1.5,-1.5 0,-0.828 0.672,-1.5 1.5,-1.5 h 17.904 c 0.828,0 1.5,0.672 1.5,1.5 0.001,0.828 -0.671,1.5 -1.499,1.5 z"
   id="path48" />
					<path
   style="fill:#edb732"
   d="M 448.764,336.696 H 430.86 c -0.828,0 -1.5,-0.672 -1.5,-1.5 0,-0.828 0.672,-1.5 1.5,-1.5 h 17.904 c 0.828,0 1.5,0.672 1.5,1.5 0,0.828 -0.671,1.5 -1.5,1.5 z"
   id="path49" />
					<path
   style="fill:#edb732"
   d="M 451.104,346.78 H 433.2 c -0.828,0 -1.5,-0.672 -1.5,-1.5 0,-0.828 0.672,-1.5 1.5,-1.5 h 17.904 c 0.828,0 1.5,0.672 1.5,1.5 0,0.828 -0.672,1.5 -1.5,1.5 z"
   id="path50" />
					<path
   style="fill:#edb732"
   d="M 453.444,356.863 H 435.54 c -0.828,0 -1.5,-0.672 -1.5,-1.5 0,-0.828 0.672,-1.5 1.5,-1.5 h 17.904 c 0.828,0 1.5,0.672 1.5,1.5 0,0.828 -0.672,1.5 -1.5,1.5 z"
   id="path51" />
					<path
   style="fill:#edb732"
   d="M 455.784,366.947 H 437.88 c -0.828,0 -1.5,-0.672 -1.5,-1.5 0,-0.828 0.672,-1.5 1.5,-1.5 h 17.904 c 0.828,0 1.5,0.672 1.5,1.5 0,0.828 -0.672,1.5 -1.5,1.5 z"
   id="path52" />
				</g>
				<path
   style="fill:#edb732"
   d="m 463.117,377.638 h -27.608 c -0.828,0 -1.5,-0.672 -1.5,-1.5 0,-0.828 0.672,-1.5 1.5,-1.5 h 27.608 c 0.828,0 1.5,0.672 1.5,1.5 0,0.828 -0.672,1.5 -1.5,1.5 z"
   id="path53" />
			</g>
		</g>
		<g
   id="g63">
			<path
   style="fill:#e6c4a4"
   d="m 428.861,188.808 c 0,0 -4.802,9.36 1.139,11.151 v 2.93 l 5.616,1.384 c 0,0 -0.488,-2.442 0.651,-4.965 1.139,-2.523 2.035,-3.907 2.035,-3.907 0,0 2.849,-5.779 -0.651,-8.221 -3.5,-2.442 -7.675,-1.147 -8.79,1.628 z"
   id="path54" />
			<path
   style="fill:#2e333b"
   d="m 429.98,190.239 v 2.363 c 0,0 1.334,0.23 1.173,2.156 0,0 2.477,3.491 5.609,3.492 l 1.387,-2.6 c 0,0 -3.565,-5.902 -8.169,-5.411 z"
   id="path55" />
			<path
   style="fill:#edb732"
   d="m 428.238,187.739 10.669,8.34 c 0,0 4.227,-5.645 -0.56,-9.813 -3.757,-3.272 -8.588,-0.787 -10.109,1.473 z"
   id="path56" />
			<path
   style="fill:#edb732"
   d="m 428.238,187.739 c 0,0 -1.88,-0.824 -2.185,-0.519 -0.305,0.305 12.203,10.419 12.766,10.189 0.741,-0.303 0.089,-1.33 0.089,-1.33 z"
   id="path57" />
			<path
   style="fill:#e6c4a4"
   d="m 429.673,192.695 c 0,0 1.655,-0.581 1.75,0.89 0.123,1.903 -1.75,1.903 -1.75,1.903 z"
   id="path58" />
			<g
   id="g59">
				<polygon
   style="fill:#ffffff"
   points="416.784,203.31 416.784,221.17 404.437,221.17 404.437,202.363 "
   id="polygon58" />
				<polygon
   style="fill:#dbd9d7"
   points="416.784,203.31 416.784,221.17 431.888,221.17 431.888,202.363 "
   id="polygon59" />
			</g>
			<path
   style="fill:#c37a30"
   d="m 418.749,235.381 c 0.055,-3.261 0.265,-6.526 0.544,-9.774 0.491,-5.72 1.148,-11.614 2.944,-17.074 0.616,-1.873 1.375,-3.84 2.797,-5.219 2.306,-2.234 5.936,-2.136 8.709,-0.91 6.089,2.692 5.429,9.537 4.924,15.071 -0.161,1.768 -1.196,17.905 -1.742,17.905 -0.001,0.001 -18.176,0.001 -18.176,0.001 z"
   id="path59" />
			<g
   id="g61">
				<g
   id="g60">
					<path
   style="fill:#a5a5a5"
   d="m 427.302,203.914 c -1.8,-0.302 -3.498,0.907 -3.801,2.704 -0.497,2.946 -1.118,6.01 -2.734,8.24 -1.693,2.339 -4.734,2.831 -10.5,1.695 -0.358,-0.071 -0.715,-0.147 -1.073,-0.222 -0.443,1.446 -0.808,2.913 -1.182,4.391 -0.169,0.667 -0.364,1.326 -0.566,1.983 0.514,0.109 1.028,0.217 1.545,0.319 1.467,0.289 3.719,0.733 6.205,0.733 3.734,0 7.996,-1.001 10.914,-5.03 2.451,-3.384 3.296,-7.458 3.896,-11.013 0.302,-1.795 -0.908,-3.497 -2.704,-3.8 z"
   id="path60" />
				</g>
			</g>
			<path
   style="fill:#e6c4a4"
   d="m 409.194,216.331 c 0,0 0.037,-0.699 -0.747,-0.934 -0.784,-0.235 -4.271,-0.627 -4.976,2.821 -0.705,3.448 3.975,4.487 3.975,4.487 z"
   id="path61" />
			<path
   style="fill:#74787a"
   d="m 436.926,279.798 v 2.695 h -12.345 c 0,0 0.316,-2.695 2.382,-2.695 2.066,0 9.963,0 9.963,0 z"
   id="path62" />
			<polygon
   style="fill:#a5a5a5"
   points="431.667,279.798 430.461,258.843 430.461,242.167 427.06,242.167 427.365,261.404 429.583,279.798 424.646,279.798 419.709,261.038 418.749,235.381 436.926,235.381 436.926,279.798 "
   id="polygon62" />
			<path
   style="fill:#b5b8ba"
   d="m 429.583,279.798 v 2.695 h -12.345 c 0,0 0.316,-2.695 2.382,-2.695 2.066,0 9.963,0 9.963,0 z"
   id="path63" />
		</g>
	</g><g
   id="g111">
		<g
   id="g104">
			<path
   style="fill:#ffffff"
   d="m 92.457,357.958 h -27.95 c -0.829,0 -1.5,-0.672 -1.5,-1.5 0,-0.828 0.671,-1.5 1.5,-1.5 h 27.95 c 0.829,0 1.5,0.672 1.5,1.5 0,0.828 -0.671,1.5 -1.5,1.5 z"
   id="path64" />
			<polygon
   style="fill:#ffffff"
   points="44.898,130.21 84.824,100.285 107.84,112.517 106.902,114.283 85.007,102.647 46.898,131.21 46.898,297.176 44.898,297.176 "
   id="polygon64" />
			<g
   id="g65">
				<rect
   x="239.688"
   y="129.964"
   style="fill:#ffffff"
   width="2"
   height="11.669"
   id="rect64" />
				<rect
   x="232.42799"
   y="129.964"
   style="fill:#ffffff"
   width="2"
   height="11.669"
   id="rect65" />
			</g>
			<g
   id="g92">
				<g
   id="g91">
					<path
   style="fill:#edb732"
   d="m 64.507,371.248 c -1.381,0 -2.5,-1.119 -2.5,-2.5 V 130.537 c 0,-1.381 1.119,-2.5 2.5,-2.5 1.381,0 2.5,1.119 2.5,2.5 v 238.211 c 0,1.381 -1.119,2.5 -2.5,2.5 z"
   id="path65" />
					<path
   style="fill:#edb732"
   d="m 92.388,371.248 c -1.381,0 -2.5,-1.119 -2.5,-2.5 V 130.537 c 0,-1.381 1.119,-2.5 2.5,-2.5 1.381,0 2.5,1.119 2.5,2.5 v 238.211 c 0,1.381 -1.119,2.5 -2.5,2.5 z"
   id="path66" />
					<path
   style="fill:#edb732"
   d="M 252.154,133.537 H 42.064 c -1.657,0 -3,-1.343 -3,-3 0,-1.657 1.343,-3 3,-3 h 210.09 c 1.657,0 3,1.343 3,3 0,1.657 -1.343,3 -3,3 z"
   id="path67" />
					<path
   style="fill:#edb732"
   d="m 92.457,162.307 c -0.384,0 -0.768,-0.146 -1.061,-0.439 l -27.95,-27.95 c -0.586,-0.585 -0.586,-1.536 0,-2.121 0.586,-0.586 1.535,-0.586 2.121,0 l 27.95,27.95 c 0.586,0.585 0.586,1.536 0,2.121 -0.292,0.292 -0.676,0.439 -1.06,0.439 z"
   id="path68" />
					<path
   style="fill:#edb732"
   d="m 64.507,162.307 c -0.384,0 -0.768,-0.146 -1.061,-0.439 -0.586,-0.585 -0.586,-1.536 0,-2.121 l 27.95,-27.95 c 0.586,-0.586 1.535,-0.586 2.121,0 0.586,0.585 0.586,1.536 0,2.121 l -27.95,27.95 c -0.292,0.292 -0.676,0.439 -1.06,0.439 z"
   id="path69" />
					<path
   style="fill:#edb732"
   d="m 92.457,190.257 c -0.384,0 -0.768,-0.146 -1.061,-0.439 l -27.95,-27.95 c -0.586,-0.585 -0.586,-1.536 0,-2.121 0.586,-0.586 1.535,-0.586 2.121,0 l 27.95,27.95 c 0.586,0.585 0.586,1.536 0,2.121 -0.292,0.292 -0.676,0.439 -1.06,0.439 z"
   id="path70" />
					<path
   style="fill:#edb732"
   d="m 64.507,190.257 c -0.384,0 -0.768,-0.146 -1.061,-0.439 -0.586,-0.585 -0.586,-1.536 0,-2.121 l 27.95,-27.95 c 0.586,-0.586 1.535,-0.586 2.121,0 0.586,0.585 0.586,1.536 0,2.121 l -27.95,27.95 c -0.292,0.292 -0.676,0.439 -1.06,0.439 z"
   id="path71" />
					<path
   style="fill:#edb732"
   d="m 92.457,218.207 c -0.384,0 -0.768,-0.146 -1.061,-0.439 l -27.95,-27.951 c -0.586,-0.585 -0.586,-1.536 0,-2.121 0.586,-0.586 1.535,-0.586 2.121,0 l 27.95,27.951 c 0.586,0.585 0.586,1.536 0,2.121 -0.292,0.293 -0.676,0.439 -1.06,0.439 z"
   id="path72" />
					<path
   style="fill:#edb732"
   d="m 64.507,218.207 c -0.384,0 -0.768,-0.146 -1.061,-0.439 -0.586,-0.585 -0.586,-1.536 0,-2.121 l 27.95,-27.951 c 0.586,-0.586 1.535,-0.586 2.121,0 0.586,0.585 0.586,1.536 0,2.121 l -27.95,27.951 c -0.292,0.293 -0.676,0.439 -1.06,0.439 z"
   id="path73" />
					<path
   style="fill:#edb732"
   d="m 92.457,246.158 c -0.384,0 -0.768,-0.146 -1.061,-0.439 l -27.95,-27.95 c -0.586,-0.585 -0.586,-1.536 0,-2.121 0.586,-0.586 1.535,-0.586 2.121,0 l 27.95,27.95 c 0.586,0.585 0.586,1.536 0,2.121 -0.292,0.292 -0.676,0.439 -1.06,0.439 z"
   id="path74" />
					<path
   style="fill:#edb732"
   d="m 64.507,246.158 c -0.384,0 -0.768,-0.146 -1.061,-0.439 -0.586,-0.586 -0.586,-1.536 0,-2.121 l 27.95,-27.95 c 0.586,-0.586 1.535,-0.586 2.121,0 0.586,0.585 0.586,1.536 0,2.121 l -27.95,27.95 c -0.292,0.292 -0.676,0.439 -1.06,0.439 z"
   id="path75" />
					<path
   style="fill:#edb732"
   d="m 92.457,274.108 c -0.384,0 -0.768,-0.146 -1.061,-0.439 l -27.95,-27.95 c -0.586,-0.586 -0.586,-1.536 0,-2.121 0.586,-0.586 1.535,-0.586 2.121,0 l 27.95,27.95 c 0.586,0.586 0.586,1.535 0,2.121 -0.292,0.292 -0.676,0.439 -1.06,0.439 z"
   id="path76" />
					<path
   style="fill:#edb732"
   d="m 64.507,274.108 c -0.384,0 -0.768,-0.146 -1.061,-0.439 -0.586,-0.586 -0.586,-1.535 0,-2.121 l 27.95,-27.95 c 0.586,-0.586 1.535,-0.586 2.121,0 0.586,0.585 0.586,1.536 0,2.121 l -27.95,27.95 c -0.292,0.292 -0.676,0.439 -1.06,0.439 z"
   id="path77" />
					<path
   style="fill:#edb732"
   d="m 92.457,302.058 c -0.384,0 -0.768,-0.146 -1.061,-0.439 l -27.95,-27.95 c -0.586,-0.586 -0.586,-1.535 0,-2.121 0.586,-0.586 1.535,-0.586 2.121,0 l 27.95,27.95 c 0.586,0.586 0.586,1.535 0,2.121 -0.292,0.292 -0.676,0.439 -1.06,0.439 z"
   id="path78" />
					<path
   style="fill:#edb732"
   d="m 64.507,302.058 c -0.384,0 -0.768,-0.146 -1.061,-0.439 -0.586,-0.586 -0.586,-1.535 0,-2.121 l 27.95,-27.95 c 0.586,-0.586 1.535,-0.586 2.121,0 0.586,0.586 0.586,1.535 0,2.121 l -27.95,27.95 c -0.292,0.292 -0.676,0.439 -1.06,0.439 z"
   id="path79" />
					<path
   style="fill:#edb732"
   d="m 92.457,330.008 c -0.384,0 -0.768,-0.146 -1.061,-0.439 l -27.95,-27.95 c -0.586,-0.586 -0.586,-1.535 0,-2.121 0.586,-0.586 1.535,-0.586 2.121,0 l 27.95,27.95 c 0.586,0.586 0.586,1.535 0,2.121 -0.292,0.293 -0.676,0.439 -1.06,0.439 z"
   id="path80" />
					<path
   style="fill:#edb732"
   d="m 64.507,330.008 c -0.384,0 -0.768,-0.146 -1.061,-0.439 -0.586,-0.586 -0.586,-1.535 0,-2.121 l 27.95,-27.95 c 0.586,-0.586 1.535,-0.586 2.121,0 0.586,0.586 0.586,1.535 0,2.121 l -27.95,27.95 c -0.292,0.293 -0.676,0.439 -1.06,0.439 z"
   id="path81" />
					<path
   style="fill:#edb732"
   d="m 92.457,357.958 c -0.384,0 -0.768,-0.146 -1.061,-0.439 l -27.95,-27.95 c -0.586,-0.586 -0.586,-1.535 0,-2.121 0.586,-0.586 1.535,-0.586 2.121,0 l 27.95,27.95 c 0.586,0.586 0.586,1.535 0,2.121 -0.292,0.293 -0.676,0.439 -1.06,0.439 z"
   id="path82" />
					<path
   style="fill:#edb732"
   d="m 64.507,357.958 c -0.384,0 -0.768,-0.146 -1.061,-0.439 -0.586,-0.586 -0.586,-1.535 0,-2.121 l 27.95,-27.95 c 0.586,-0.586 1.535,-0.586 2.121,0 0.586,0.586 0.586,1.535 0,2.121 l -27.95,27.95 c -0.292,0.293 -0.676,0.439 -1.06,0.439 z"
   id="path83" />
					<path
   style="fill:#edb732"
   d="m 92.457,190.257 h -27.95 c -0.829,0 -1.5,-0.671 -1.5,-1.5 0,-0.829 0.671,-1.5 1.5,-1.5 h 27.95 c 0.829,0 1.5,0.671 1.5,1.5 0,0.828 -0.671,1.5 -1.5,1.5 z"
   id="path84" />
					<path
   style="fill:#edb732"
   d="m 92.457,246.158 h -27.95 c -0.829,0 -1.5,-0.671 -1.5,-1.5 0,-0.829 0.671,-1.5 1.5,-1.5 h 27.95 c 0.829,0 1.5,0.671 1.5,1.5 0,0.829 -0.671,1.5 -1.5,1.5 z"
   id="path85" />
					<path
   style="fill:#edb732"
   d="m 92.457,302.058 h -27.95 c -0.829,0 -1.5,-0.672 -1.5,-1.5 0,-0.828 0.671,-1.5 1.5,-1.5 h 27.95 c 0.829,0 1.5,0.672 1.5,1.5 0,0.828 -0.671,1.5 -1.5,1.5 z"
   id="path86" />
					<path
   style="fill:#edb732"
   d="m 240.479,133.21 c -0.64,0 -1.28,-0.244 -1.768,-0.733 L 222.134,115.9 H 83.133 l -16.405,16.404 c -0.976,0.977 -2.56,0.977 -3.535,0 -0.977,-0.976 -0.977,-2.559 0,-3.535 L 80.33,111.632 c 0.469,-0.469 1.104,-0.732 1.768,-0.732 H 223.17 c 0.663,0 1.299,0.263 1.768,0.732 l 17.31,17.31 c 0.976,0.976 0.976,2.559 0,3.535 -0.489,0.489 -1.129,0.733 -1.769,0.733 z"
   id="path87" />
					<path
   style="fill:#edb732"
   d="m 99.823,132.626 c -0.384,0 -0.768,-0.146 -1.061,-0.44 L 81.036,114.46 c -0.586,-0.586 -0.586,-1.536 0,-2.121 0.586,-0.586 1.535,-0.586 2.121,0 l 16.665,16.665 16.481,-16.481 c 0.586,-0.586 1.535,-0.586 2.121,0 0.586,0.585 0.586,1.536 0,2.121 l -17.542,17.542 c -0.291,0.294 -0.675,0.44 -1.059,0.44 z"
   id="path88" />
					<path
   style="fill:#edb732"
   d="m 135.091,132.626 c -0.384,0 -0.768,-0.146 -1.061,-0.44 L 116.304,114.46 c -0.586,-0.586 -0.586,-1.536 0,-2.121 0.586,-0.586 1.535,-0.586 2.121,0 l 16.665,16.665 16.481,-16.481 c 0.586,-0.586 1.535,-0.586 2.121,0 0.586,0.585 0.586,1.536 0,2.121 l -17.542,17.542 c -0.291,0.294 -0.675,0.44 -1.059,0.44 z"
   id="path89" />
					<path
   style="fill:#edb732"
   d="m 170.359,132.626 c -0.384,0 -0.768,-0.146 -1.061,-0.44 L 151.572,114.46 c -0.586,-0.586 -0.586,-1.536 0,-2.121 0.586,-0.586 1.535,-0.586 2.121,0 l 16.666,16.665 16.481,-16.481 c 0.586,-0.586 1.535,-0.586 2.121,0 0.586,0.585 0.586,1.536 0,2.121 l -17.542,17.542 c -0.292,0.294 -0.676,0.44 -1.06,0.44 z"
   id="path90" />
					<path
   style="fill:#edb732"
   d="m 205.627,132.626 c -0.384,0 -0.768,-0.146 -1.061,-0.44 L 186.84,114.46 c -0.586,-0.586 -0.586,-1.536 0,-2.121 0.586,-0.586 1.535,-0.586 2.121,0 l 16.665,16.665 16.482,-16.481 c 0.586,-0.586 1.535,-0.586 2.121,0 0.586,0.585 0.586,1.536 0,2.121 l -17.542,17.542 c -0.292,0.294 -0.676,0.44 -1.06,0.44 z"
   id="path91" />
				</g>
			</g>
			<g
   id="g93">
				<path
   style="fill:#edb732"
   d="m 244.74,169.1 c -0.462,-1.667 -1.479,-3.17 -2.861,-4.205 -0.933,-0.709 -2.037,-1.168 -3.182,-1.398 -0.041,-1.533 -0.09,-3.066 -0.184,-4.599 h -2.917 c -0.125,2.035 -0.178,4.07 -0.225,6.105 l -0.039,1.654 1.723,0.029 c 1.983,0.034 3.844,1.447 4.361,3.349 0.589,1.889 -0.192,4.108 -1.913,5.232 -0.838,0.587 -1.878,0.829 -2.927,0.809 -1.041,-0.052 -2.095,-0.405 -2.979,-1.076 -1.805,-1.299 -2.809,-3.885 -2.121,-6.583 -1.861,2.121 -1.742,5.965 0.538,8.293 1.082,1.198 2.641,1.968 4.284,2.205 1.641,0.218 3.383,-0.121 4.84,-0.981 1.469,-0.838 2.655,-2.183 3.294,-3.778 0.65,-1.59 0.769,-3.388 0.308,-5.056 z"
   id="path92" />
				<polygon
   style="fill:#d0493a"
   points="241.507,161.271 232.61,161.271 223.169,146.511 223.169,141.63 250.948,141.63 250.948,146.511 "
   id="polygon92" />
			</g>
			<g
   id="g94">
				<path
   style="fill:#edb732"
   d="m 50.739,130.71 c 0,2.674 -2.168,4.842 -4.842,4.842 -2.674,0 -4.842,-2.168 -4.842,-4.842 0,-2.674 2.168,-4.842 4.842,-4.842 2.674,0.001 4.842,2.168 4.842,4.842 z"
   id="path93" />
				<path
   style="fill:#c37a30"
   d="m 47.701,130.71 c 0,0.996 -0.808,1.804 -1.804,1.804 -0.996,0 -1.804,-0.808 -1.804,-1.804 0,-0.996 0.808,-1.804 1.804,-1.804 0.997,0.001 1.804,0.808 1.804,1.804 z"
   id="path94" />
			</g>
			<g
   id="g96">
				<path
   style="fill:#edb732"
   d="m 89.657,101.466 c 0,2.674 -2.168,4.842 -4.842,4.842 -2.674,0 -4.842,-2.168 -4.842,-4.842 0,-2.674 2.168,-4.842 4.842,-4.842 2.675,0 4.842,2.168 4.842,4.842 z"
   id="path95" />
				<path
   style="fill:#c37a30"
   d="m 86.619,101.466 c 0,0.996 -0.808,1.804 -1.804,1.804 -0.996,0 -1.804,-0.808 -1.804,-1.804 0,-0.996 0.808,-1.804 1.804,-1.804 0.996,0 1.804,0.807 1.804,1.804 z"
   id="path96" />
			</g>
			<g
   id="g98">
				<path
   style="fill:#edb732"
   d="m 50.739,200.817 c 0,2.674 -2.168,4.842 -4.842,4.842 -2.674,0 -4.842,-2.168 -4.842,-4.842 0,-2.674 2.168,-4.842 4.842,-4.842 2.674,0.001 4.842,2.168 4.842,4.842 z"
   id="path97" />
				<path
   style="fill:#c37a30"
   d="m 47.701,200.817 c 0,0.996 -0.808,1.804 -1.804,1.804 -0.996,0 -1.804,-0.808 -1.804,-1.804 0,-0.996 0.808,-1.804 1.804,-1.804 0.997,0.001 1.804,0.808 1.804,1.804 z"
   id="path98" />
			</g>
			<g
   id="g100">
				<path
   style="fill:#edb732"
   d="m 50.739,242.625 c 0,2.674 -2.168,4.842 -4.842,4.842 -2.674,0 -4.842,-2.168 -4.842,-4.842 0,-2.674 2.168,-4.842 4.842,-4.842 2.674,0.001 4.842,2.169 4.842,4.842 z"
   id="path99" />
				<path
   style="fill:#c37a30"
   d="m 47.701,242.625 c 0,0.996 -0.808,1.804 -1.804,1.804 -0.996,0 -1.804,-0.808 -1.804,-1.804 0,-0.996 0.808,-1.804 1.804,-1.804 0.997,0.001 1.804,0.808 1.804,1.804 z"
   id="path100" />
			</g>
			<path
   style="fill:#5d646b"
   d="m 54.91,295.596 v 28.518 c 0,4.512 -3.306,8.245 -7.623,8.916 -0.447,0.068 -0.914,0.107 -1.39,0.107 -4.978,0 -9.013,-4.035 -9.013,-9.023 v -28.518 c 0,-1.527 0.379,-2.966 1.05,-4.23 1.517,-2.849 4.512,-4.784 7.963,-4.784 1.672,0 3.248,0.457 4.589,1.254 1.342,0.797 2.46,1.935 3.238,3.286 0.758,1.324 1.186,2.851 1.186,4.474 z"
   id="path101" />
			<path
   style="fill:#515860"
   d="m 48.347,300.273 v 28.518 c 0,1.536 -0.379,2.975 -1.06,4.239 -0.447,0.068 -0.914,0.107 -1.39,0.107 -4.978,0 -9.013,-4.035 -9.013,-9.023 v -28.518 c 0,-1.527 0.379,-2.966 1.05,-4.23 0.447,-0.068 0.914,-0.107 1.39,-0.107 1.672,0 3.248,0.457 4.589,1.254 1.342,0.797 2.47,1.925 3.238,3.286 0.758,1.314 1.196,2.841 1.196,4.474 z"
   id="path102" />
			<rect
   x="36.882999"
   y="353.478"
   style="fill:#515860"
   width="83.191002"
   height="25.882999"
   id="rect102" />
			<path
   style="fill:#b23228"
   d="m 250.948,141.63 v 4.881 l -9.441,14.76 h -1.556 v -5.425 c 0,-5.153 -4.181,-9.334 -9.334,-9.334 h -7.448 v -4.881 h 27.779 z"
   id="path103" />
			<path
   style="fill:#5d646b"
   d="m 120.074,353.478 v 25.883 H 99.432 c 0,-2.392 -0.525,-4.657 -1.478,-6.69 -0.953,-2.042 -2.314,-3.831 -3.986,-5.289 -2.781,-2.411 -6.417,-3.88 -10.394,-3.88 H 36.883 v -10.025 h 83.191 z"
   id="path104" />
		</g>
		<g
   id="g110">
			<path
   style="fill:#2e333b"
   d="m 236.576,205.429 c -0.276,0 -0.5,-0.224 -0.5,-0.5 v -28.852 c 0,-0.276 0.224,-0.5 0.5,-0.5 0.276,0 0.5,0.224 0.5,0.5 v 28.852 c 0,0.276 -0.223,0.5 -0.5,0.5 z"
   id="path105" />
			<path
   style="fill:#2e333b"
   d="m 221.501,201.461 c -0.068,0 -0.138,-0.014 -0.205,-0.044 -0.252,-0.113 -0.364,-0.41 -0.25,-0.661 l 11.866,-26.3 c 0.114,-0.251 0.408,-0.365 0.661,-0.25 0.252,0.113 0.364,0.41 0.25,0.661 l -11.866,26.3 c -0.084,0.185 -0.265,0.294 -0.456,0.294 z"
   id="path106" />
			<path
   style="fill:#2e333b"
   d="m 251.797,201.461 c -0.19,0 -0.372,-0.109 -0.456,-0.294 l -11.865,-26.3 c -0.114,-0.251 -0.002,-0.548 0.25,-0.661 0.253,-0.117 0.547,-0.002 0.661,0.25 l 11.866,26.3 c 0.113,0.251 0.001,0.548 -0.25,0.661 -0.068,0.03 -0.137,0.044 -0.206,0.044 z"
   id="path107" />
			<g
   id="g109">
				
					<rect
   x="197.495"
   y="206.31799"
   transform="matrix(0.9983,0.0577,-0.0577,0.9983,14.8989,-13.5681)"
   style="fill:#a5a5a5"
   width="90.043999"
   height="90.043999"
   id="rect107" />
				
					<rect
   x="189.91499"
   y="196.892"
   transform="matrix(0.9983,0.0577,-0.0577,0.9983,14.3426,-13.1466)"
   style="fill:#4a6eaa"
   width="90.043999"
   height="90.043999"
   id="rect108" />
				<path
   style="fill:#ffffff"
   d="m 273.336,285.025 -0.5,-0.029 -81.01,-4.679 4.709,-81.51 81.51,4.709 -0.029,0.499 z m -80.454,-5.65 79.513,4.593 4.594,-79.512 -79.513,-4.594 z"
   id="path108" />
				<polygon
   style="fill:#ffffff"
   points="273.669,270.572 272.865,284.493 192.358,279.842 193.886,253.395 227.756,223.224 "
   id="polygon108" />
				<polygon
   style="fill:#ffffff"
   points="219.116,281.392 220.158,263.357 254.036,233.188 274.604,254.402 272.865,284.497 "
   id="polygon109" />
				<path
   style="fill:#ffffff"
   d="m 251.486,218.156 c -0.205,3.544 -3.244,6.252 -6.788,6.047 -3.544,-0.205 -6.252,-3.244 -6.047,-6.788 0.205,-3.544 3.244,-6.252 6.788,-6.047 3.545,0.204 6.252,3.244 6.047,6.788 z"
   id="path109" />
			</g>
		</g>
	</g>

</svg>
